Coordinates
version=1
nRows=8
nColumns=40
inDegrees=yes

Units are S.I. units (second, meters, Newtons, ...)
Angles are in degrees.

endheader
time	pelvis_tilt	pelvis_list	pelvis_rotation	pelvis_tx	pelvis_ty	pelvis_tz	hip_flexion_r	hip_adduction_r	hip_rotation_r	knee_angle_r	knee_angle_r_beta	ankle_angle_r	subtalar_angle_r	mtp_angle_r	hip_flexion_l	hip_adduction_l	hip_rotation_l	knee_angle_l	knee_angle_l_beta	ankle_angle_l	subtalar_angle_l	mtp_angle_l	lumbar_extension	lumbar_bending	lumbar_rotation	arm_flex_r	arm_add_r	arm_rot_r	elbow_flex_r	pro_sup_r	wrist_flex_r	wrist_dev_r	arm_flex_l	arm_add_l	arm_rot_l	elbow_flex_l	pro_sup_l	wrist_flex_l	wrist_dev_l
     44.63250000	     -3.01520223	     -4.66176235	      4.31028044	      1.05145435	      0.92689398	      0.44071676	      1.35942612	     -1.73339093	    -15.69030205	     21.79007031	     21.79007031	     16.63007278	      2.35347211	     -4.40765005	     22.68462829	     -6.18460611	     -1.17756736	     26.78047829	     26.78047829	     10.70586932	    -12.40160441	      3.62780555	     -8.24732910	      5.76045625	      3.21261579	     31.17770963	    -17.52414744	    -10.44658155	     84.06752684	     44.64109588	      0.00000000	      0.00000000	     -0.86481473	     -9.66177872	      2.02234676	     30.92915031	     44.88570509	      0.00000000	      0.00000000
     44.64542857	     -3.20839908	     -4.39289437	      3.87887268	      1.05105369	      0.92729873	      0.43788427	      2.93126878	     -2.67099267	    -14.79360861	     24.87308165	     24.87308165	     16.15081359	      0.98591927	     -5.45684449	     22.22930787	     -5.86066350	     -1.81635277	     26.42418475	     26.42418475	     10.83568990	    -12.23286261	      3.35474190	     -8.09446495	      5.41862405	      3.30223913	     29.83984598	    -17.51334460	    -10.07953905	     82.22893054	     44.69230794	      0.00000000	      0.00000000	      0.75928642	     -9.95687720	      1.94949998	     31.14708290	     44.93402939	      0.00000000	      0.00000000
     44.65835714	     -3.26102718	     -4.36353038	      3.52448083	      1.05067554	      0.92785558	      0.43522587	      4.32664469	     -3.25300122	    -13.94792664	     27.78693659	     27.78693659	     15.27777033	     -0.51489337	     -6.66273524	     21.70380731	     -5.76227040	     -2.22767162	     26.14753040	     26.14753040	     10.98485000	    -12.21929326	      3.06541442	     -8.08105621	      5.36520692	      3.23026885	     28.47659726	    -17.27304740	     -9.61483330	     80.40397910	     44.74043270	      0.00000000	      0.00000000	      2.34696221	    -10.26308443	      1.91718252	     31.37442273	     44.97708373	      0.00000000	      0.00000000
     44.67128571	     -3.19855596	     -4.28769085	      3.16283556	      1.05024306	      0.92844135	      0.43266830	      5.78494570	     -3.89501252	    -13.11657705	     30.99887880	     30.99887880	     14.26707354	     -1.96378002	     -7.74282398	     21.05240023	     -5.62519351	     -2.64475404	     25.88504602	     25.88504602	     11.21544904	    -12.18638637	      2.82883811	     -8.27464583	      5.24999616	      3.10802753	     27.04410242	    -16.93137756	     -9.15402275	     78.87125205	     44.77546938	      0.00000000	      0.00000000	      3.90178213	    -10.64001495	      1.88031034	     31.79859056	     45.01522583	      0.00000000	      0.00000000
     44.68421429	     -3.21066020	     -4.35026399	      2.81713413	      1.04958001	      0.92885279	      0.43037717	      7.36836049	     -4.15505873	    -11.83292642	     33.95383202	     33.95383202	     11.55639564	     -5.10915472	    -12.27283415	     20.51206991	     -5.62318555	     -2.93205360	     25.57471480	     25.57471480	     11.05756843	    -12.29851247	      1.89299014	     -8.28197769	      5.28922996	      2.64758019	     26.35829932	    -16.38822027	     -8.03815814	     75.19468587	     44.89200446	      0.00000000	      0.00000000	      5.36759800	    -11.12408254	      2.17227173	     31.98083990	     45.05481676	      0.00000000	      0.00000000
     44.69714286	     -3.18027393	     -4.24909333	      2.45083514	      1.04884553	      0.92911185	      0.42807308	      9.23507486	     -4.82932567	    -11.05724225	     37.67634521	     37.67634521	     10.25031917	     -6.41307286	    -12.86707293	     19.98303852	     -5.46179130	     -3.34006081	     25.42400825	     25.42400825	     11.28613779	    -12.27906911	      1.74603829	     -8.50997811	      5.15340577	      2.58279993	     24.65106465	    -16.16722978	     -7.65469542	     74.03718747	     44.91499742	      0.00000000	      0.00000000	      6.85480673	    -11.60058071	      2.06431167	     32.77515446	     45.10074569	      0.00000000	      0.00000000
     44.71007143	     -3.07412717	     -4.16946468	      2.13771103	      1.04802089	      0.92939662	      0.42584237	     11.07426549	     -5.38298110	    -10.22833237	     41.36023040	     41.36023040	      8.71713339	     -7.97365837	    -13.15397134	     19.43071985	     -5.32601880	     -3.72213954	     25.33366094	     25.33366094	     11.46369667	    -12.25586436	      1.60301323	     -8.83890372	      5.11701084	      2.52213839	     22.92278723	    -15.85850270	     -7.24442648	     72.65126203	     44.94305651	      0.00000000	      0.00000000	      8.46470557	    -12.09318760	      1.98365463	     33.58257533	     45.14225376	      0.00000000	      0.00000000
     44.72300000	     -3.09403263	     -4.12220362	      1.75034133	      1.04714249	      0.92939288	      0.42401136	     13.15952662	     -5.74244628	     -9.16586752	     45.03955742	     45.03955742	      6.97320518	     -9.77342269	    -13.17602617	     18.99776029	     -5.24936628	     -4.09619755	     25.22329105	     25.22329105	     11.75908481	    -12.22722889	      1.35981564	     -8.95914147	      4.95058522	      2.55925188	     21.15859333	    -15.71034906	     -6.83912759	     70.84081867	     44.98589809	      0.00000000	      0.00000000	     10.05396598	    -12.54234218	      1.94589536	     34.47730470	     45.17866440	      0.00000000	      0.00000000
